<svg viewBox="0 0 18.2769 21.2593" xmlns="http://www.w3.org/2000/svg" xmlns:xlink="http://www.w3.org/1999/xlink" width="18.276855" height="21.259277" fill="none" customFrame="#000000">
	<defs>
		<g id="pixso_custom_effect_1">
			<effect x="0.000000" y="0.000000" visibility="visible" fill="rgb(39,39,39)" fill-opacity="0.501960814" effectType="dropShadow" stdDeviation="6" radius="0" />
		</g>
		<filter id="filter_1" width="18.276855" height="21.259277" x="0.000000" y="0.000000" filterUnits="userSpaceOnUse" customEffect="url(#pixso_custom_effect_1)" color-interpolation-filters="sRGB">
			<feFlood flood-opacity="0" result="BackgroundImageFix" />
			<feOffset dx="0.000000" dy="0.000000" in="SourceAlpha" />
			<feGaussianBlur stdDeviation="2" />
			<feColorMatrix type="matrix" values="0 0 0 0 0.152941 0 0 0 0 0.152941 0 0 0 0 0.152941 0 0 0 0.501961 0 " />
			<feBlend result="effect_dropShadow_1" in2="BackgroundImageFix" mode="normal" />
			<feBlend result="shape" in="SourceGraphic" in2="effect_dropShadow_1" mode="normal" />
		</filter>
	</defs>
	<g filter="url(#filter_1)">
		<path id="形状结合" d="M12.1324 19.4414C11.5653 20.5157 10.4426 21.2593 9.13824 21.2593C7.9063 21.2593 6.83646 20.5961 6.24367 19.6173L6.14407 19.4414L12.1324 19.4414ZM9.13845 0C9.57081 0 9.92171 0.348444 9.92171 0.777777L9.92226 1.60195C13.1531 1.98758 15.6659 4.72663 15.6659 8.03697L15.6659 10.111C15.6669 11.5587 15.9217 12.9753 16.4209 14.3235C16.7812 15.2941 17.2115 15.8054 17.6679 16.3467C17.8235 16.5313 17.976 16.7128 18.1201 16.9036C18.2976 17.139 18.3269 17.4553 18.1943 17.7187C18.0616 17.9821 17.7901 18.1481 17.4935 18.1481L0.783816 18.1481C0.489308 18.1481 0.21882 17.9832 0.0851429 17.7218C-0.0485346 17.4605 -0.0234699 17.1473 0.150937 16.9109C0.290881 16.7211 0.438135 16.5396 0.589566 16.355C1.05848 15.7784 1.50338 15.2319 1.87308 14.2042C2.34617 12.8841 2.59473 11.5038 2.61144 10.1017L2.61144 8.03697C2.61144 4.72663 5.12332 1.98758 8.35486 1.60195L8.35518 0.777777C8.35518 0.348444 8.70608 0 9.13845 0Z" fill="rgb(244,132,12)" fill-rule="evenodd" />
		<path id="形状结合" d="M9.92226 1.60195L9.92171 0.777777C9.92171 0.348444 9.57081 0 9.13845 0C8.70608 0 8.35518 0.348444 8.35518 0.777777L8.35486 1.60195C5.12332 1.98758 2.61144 4.72663 2.61144 8.03697L2.61144 10.1017C2.59473 11.5038 2.34617 12.8841 1.87308 14.2042C1.50338 15.2319 1.05848 15.7784 0.589566 16.355C0.438135 16.5396 0.290881 16.7211 0.150937 16.9109C-0.0234699 17.1473 -0.0485346 17.4605 0.0851429 17.7218C0.21882 17.9832 0.489308 18.1481 0.783816 18.1481L17.4935 18.1481C17.7901 18.1481 18.0616 17.9821 18.1943 17.7187C18.3269 17.4553 18.2976 17.139 18.1201 16.9036C17.976 16.7128 17.8235 16.5313 17.6679 16.3467C17.2115 15.8054 16.7812 15.2941 16.4209 14.3235C15.9217 12.9753 15.6669 11.5587 15.6659 10.111L15.6659 8.03697C15.6659 4.72663 13.1531 1.98758 9.92226 1.60195ZM6.53414 19.4414L6.14407 19.4414L6.24367 19.6173C6.43144 19.9273 6.66708 20.2057 6.94058 20.4414C7.53049 20.9497 8.29653 21.2593 9.13824 21.2593C9.97994 21.2593 10.746 20.9497 11.3359 20.4414C11.6602 20.1619 11.9312 19.8225 12.1324 19.4414L6.53414 19.4414ZM9.13863 2.51552L8.47335 2.59491C8.13139 2.63572 7.79891 2.70675 7.4759 2.80802C7.16146 2.9066 6.85599 3.03383 6.55951 3.18971C6.27308 3.34031 6.00366 3.51297 5.75127 3.70768C5.48709 3.91149 5.24156 4.13946 5.01467 4.3916C4.76008 4.67452 4.53888 4.97692 4.35105 5.29879C4.21039 5.53983 4.08845 5.79179 3.98523 6.05467C3.87402 6.33788 3.78763 6.6263 3.72605 6.91992C3.64964 7.28426 3.61144 7.65661 3.61144 8.03697L3.61137 10.1136C3.6025 10.8572 3.53438 11.5903 3.40698 12.313C3.27396 13.0676 3.07631 13.8109 2.81404 14.5427C2.6241 15.0707 2.38983 15.5522 2.11121 15.9872C2.00028 16.1604 1.8737 16.3401 1.73147 16.5262C1.64979 16.6331 1.52821 16.7858 1.36671 16.9844L1.3627 16.9893C1.31678 17.0453 1.27371 17.0982 1.23347 17.1481L17.0346 17.1481C16.9939 17.0991 16.9502 17.0468 16.9034 16.9913C16.7461 16.8048 16.6273 16.6608 16.547 16.5592C16.4076 16.383 16.2834 16.2126 16.1745 16.048C15.9011 15.6348 15.6706 15.1758 15.4832 14.6707C15.2268 13.9784 15.0308 13.2747 14.895 12.5595C14.7429 11.7577 14.6665 10.9416 14.6659 10.111L14.6659 8.03697C14.6659 7.65727 14.6278 7.28555 14.5516 6.92181C14.49 6.62757 14.4034 6.33855 14.292 6.05475C14.189 5.79242 14.0673 5.54096 13.927 5.30038C13.7389 4.97794 13.5174 4.67503 13.2623 4.39165C13.0353 4.1394 12.7896 3.91133 12.5253 3.70745C12.273 3.51283 12.0037 3.34025 11.7173 3.18971C11.4199 3.03333 11.1135 2.90578 10.798 2.80707C10.476 2.70631 10.1446 2.63559 9.80374 2.59491L9.13863 2.51552Z" fill="rgb(151,151,151)" fill-opacity="0" fill-rule="evenodd" />
	</g>
</svg>
