<svg viewBox="0 0 20 20" xmlns="http://www.w3.org/2000/svg" xmlns:xlink="http://www.w3.org/1999/xlink" width="20.000000" height="20.000000" fill="none" customFrame="#000000">
	<g id="组合 224456">
		<path id="减去顶层" d="M0 10C0 4.47715 4.47715 0 10 0C15.5228 0 20 4.47715 20 10C20 15.5228 15.5228 20 10 20C4.47715 20 0 15.5228 0 10Z" fill="rgb(32,112,243)" fill-rule="evenodd" />
		<path id="path7(边框)" d="M3.38393 0.989093L1.98227 2.36988L6.64196 2.36988C6.80108 2.36991 6.93689 2.42619 7.04938 2.53873C7.16188 2.65127 7.21811 2.7871 7.21809 2.94622L7.21765 5.36415L7.21792 6.29951L10.3777 6.29951C10.7003 6.29951 10.9539 6.55306 10.9539 6.87575C10.9539 7.19844 10.7003 7.45198 10.3777 7.45198L6.64185 7.45198C6.48276 7.45198 6.34696 7.39574 6.23445 7.28326C6.12194 7.17079 6.06566 7.035 6.06562 6.87591L6.06519 5.36448L6.06552 3.52235L1.98227 3.52235L3.38393 4.90314C3.61381 5.1296 3.6165 5.48815 3.39004 5.71803C3.16358 5.94792 2.80502 5.9506 2.57514 5.72414L0.171844 3.35662C0.0584872 3.24495 0.00121205 3.10956 1.89033e-05 2.95044C-0.00117424 2.79132 0.0540641 2.65508 0.165734 2.54172C0.166795 2.54065 0.16786 2.53958 0.168929 2.53851C0.169898 2.53754 0.170869 2.53657 0.171844 2.53561L2.57514 0.168089C2.80502 -0.058371 3.16358 -0.0556825 3.39004 0.174199C3.6165 0.40408 3.61381 0.762634 3.38393 0.989093Z" fill="rgb(255,255,255)" fill-rule="evenodd" transform="matrix(-0.707107,0.707107,-0.707107,-0.707107,17.0151,8.98474)" />
	</g>
</svg>
